<svg xmlns="http://www.w3.org/2000/svg" viewBox="0 0 201.99 202.08"><defs><style>.cls-1{fill:#3460aa;}.cls-2{fill:#9ea9d7;}.cls-3{fill:#bac1e3;}.cls-4{fill:#6880bf;}.cls-5{fill:#677fbe;}.cls-6{fill:#325faa;}.cls-7{fill:#fdfdfe;}</style></defs><g id="Capa_2" data-name="Capa 2"><g id="Capa_1-2" data-name="Capa 1"><path class="cls-1" d="M109.46.22l6.91.61c-1,2-1.92,3.87-2.9,5.66-.12.21-.69.26-1,.24-2.79-.13-5.58-.42-8.37-.43A93.45,93.45,0,0,0,42.71,28.11,94.32,94.32,0,0,0,15.38,65.16a4.37,4.37,0,0,1-1,1.45c-2.84,2.68-5.72,5.33-8.83,7.86.67-2.13,1.25-4.3,2-6.39,13-34.59,37.3-56.53,73.13-65.52,5.2-1.3,10.65-1.59,16-2.35l2.36,0,2-.19h3.84l2.21.2Z"/><path class="cls-2" d="M99.6,202.08a.39.39,0,0,1,0-.18l7,0a1.62,1.62,0,0,0,0,.22Z"/><path class="cls-3" d="M.22,103.45a.79.79,0,0,0-.22,0v-3.6H.21C.22,101,.22,102.24.22,103.45Z"/><path class="cls-3" d="M99.07.19l-2.36,0a1.49,1.49,0,0,0,0-.21h2.4A.7.7,0,0,0,99.07.19Z"/><path class="cls-3" d="M109.46.22l-2.37,0a1.46,1.46,0,0,0,0-.2h2.4A.42.42,0,0,0,109.46.22Z"/><path class="cls-4" d="M107,0c0,.07,0,.13,0,.2L104.88,0Z"/><path class="cls-5" d="M99.07.19A.7.7,0,0,1,99.13,0h1.92Z"/><path class="cls-3" d="M106.56,202.08a.81.81,0,0,1,0-.22H108a.41.41,0,0,0,0,.22Z"/><path class="cls-6" d="M79.63,146.88c1.93.74,3.85,1.52,5.8,2.23a10.48,10.48,0,0,0,11.5-2.41c1.34-1.26,2.59-2.61,3.83-4a1.25,1.25,0,0,1,1.65-.39c1.69.72,3.41,1.37,5.12,2a10,10,0,0,0,11.26-2.73c1.18-1.3,2.44-2.53,3.61-3.85a1.09,1.09,0,0,1,1.43-.35c1.74.7,3.51,1.33,5.27,2a10.37,10.37,0,0,0,10.9-2.65c1.3-1.41,2.61-2.82,4-4.17a1.4,1.4,0,0,1,1.18-.28c1.63.54,3.22,1.2,4.83,1.78a10.64,10.64,0,0,0,12.15-2.79c1.17-1.21,2.35-2.4,3.44-3.68a1.3,1.3,0,0,1,1.75-.38q2.27.93,4.59,1.73c4,1.35,8,.89,10.65-3.17,1.32-2,2.48-4.18,3.79-6.42l3.88.53c-.49,1.91-.91,3.73-1.43,5.51-9.36,32-35.56,56.27-68.31,62.09-30.61,5.43-57.84-2.17-80.83-23.52-3.12-2.9-5.78-6.29-8.61-9.49-1.1-1.25-1-1.3.12-2.51.28-.29.51-.61.79-.94,1.85,1.55,3.52,3.11,5.36,4.43a44,44,0,0,0,6.29,3.91,8.28,8.28,0,0,0,10.28-2.26c1.13-1.3,2.3-2.56,3.4-3.88a1.25,1.25,0,0,1,1.64-.46c1.6.61,3.24,1.14,4.87,1.66a10.46,10.46,0,0,0,11.34-2.7C76.65,150.22,78.06,148.58,79.63,146.88Z"/><path class="cls-1" d="M.22,103.45V99.82A34.71,34.71,0,0,1,7.14,82.58c6.53-9,15.48-14.6,26.07-17.45,5.1-1.37,10.43-1.88,15.67-2.72,3.82-.62,7.66-1.13,11.49-1.72a6,6,0,0,0,1.28-.61,67.74,67.74,0,0,1,7.67-3.28,7.21,7.21,0,0,1,9.34,7.1,48.72,48.72,0,0,1-1.52,10.39c-2.44,9.56-4.8,19.12-6.44,28.85-1.09,6.47-2.16,12.94-1.77,19.53a53.4,53.4,0,0,0,1,7A3.81,3.81,0,0,0,72.59,133a1.08,1.08,0,0,1,.55,1.83,12.08,12.08,0,0,1-2.43,2.61c-5,3.75-10.75,1.6-12.12-4.52a43.38,43.38,0,0,1-.37-15.37c.35-2.65.8-5.29,1.26-7.92s1-5.16,1.52-7.93c-1.79.37-3.49.71-5.18,1.08-3.16.68-6.31,1.44-9.48,2a1.89,1.89,0,0,0-1.68,1.62c-1.72,6.23-3.34,12.5-5.31,18.65a38.83,38.83,0,0,1-6.66,13.17c-4,4.81-10.71,5.79-15.58-.28a5.42,5.42,0,0,1-1.27-4.47c.15-.81.44-1.17,1.39-.81a3.53,3.53,0,0,0,2.06.08,10.36,10.36,0,0,0,5.44-3.92A48.73,48.73,0,0,0,32.1,115C35,107,37.66,99,40.55,91s6.63-15.75,12-22.55c.54-.69,1.1-1.35,1.82-2.23-1.9.17-3.59.21-5.24.48-5.23.86-10.59,1.33-15.65,2.82-8.72,2.57-14.78,8.65-19,16.55-2.58,4.82-4.19,10-3.58,15.53a17.07,17.07,0,0,0,1.67,5.68c1.4,2.78,3.93,3.6,6.91,2.68,3.95-1.22,7.41-6.29,7.25-10.6,0-.39,0-.78,0-1.17a3.05,3.05,0,0,1,3.54,2.43,9.68,9.68,0,0,1-.2,5.44C28.16,112,24.71,116.46,18.4,118c-6.53,1.62-13.88-2.19-16.64-8.7A38,38,0,0,1,.22,103.45Zm46.52-4.37a3,3,0,0,0,.53,0c4.83-1,9.67-2.07,14.49-3.16.29-.07.61-.55.7-.9,2.05-8.16,4.1-16.31,6.07-24.48.56-2.34.88-4.74,1.36-7.36a18,18,0,0,1-3.58,1c-2.79.14-4.49,1.72-5.85,3.92-.31.51-.69,1-1,1.48C53.52,78.69,50,88.76,46.74,99.08Z"/><path class="cls-1" d="M103.64,115.4a20.36,20.36,0,0,1-8,6.35,29.35,29.35,0,0,1-7.6,1.92c-3.7.41-6.54-1.45-8.61-4.45a17.63,17.63,0,0,1-2.85-12.45,26.6,26.6,0,0,1,10.48-18.7,14.88,14.88,0,0,1,9.13-3.15c4.53,0,7.27,3.38,6.24,7.8a8.12,8.12,0,0,1-3.24,4.89,6.8,6.8,0,0,1-2.31.88,1.38,1.38,0,0,1-1.17-.35c-.17-.21,0-.8.17-1.15a11.12,11.12,0,0,0,1.52-5.47A6.17,6.17,0,0,0,97,89.68a1.62,1.62,0,0,0-2-1,6.58,6.58,0,0,0-3.7,2.5,28.26,28.26,0,0,0-5.8,13.74,18.25,18.25,0,0,0,.25,7.85,10,10,0,0,0,.6,1.69c1.47,3.17,3.59,4.08,6.81,2.7,5-2.14,8.42-5.88,11.19-10.45,2.6-4.31,3.66-9.06,4.7-13.87.67-3.08,1.44-6.14,2.08-9.23a1.65,1.65,0,0,1,1.44-1.49c2.15-.44,4.3-.89,6.44-1.39,1-.24,1.22.19,1,1.06-.25,1.08-.49,2.17-.77,3.41,1.2-1.31,2.21-2.55,3.36-3.63a12.65,12.65,0,0,1,7.37-3.43c3.16-.38,5.27,1,6.17,4,.11.38.21.76.3,1.1,1.16-1.58,2.24-3.26,3.53-4.75a13.24,13.24,0,0,1,9.6-4.53c4.18-.25,7,2.54,6.85,7.11a53.82,53.82,0,0,1-1.23,8c-.67,3.81-1.43,7.61-2,11.42-.17,1.06-.32,2.42,1,2.93s2-.54,2.7-1.34a39.7,39.7,0,0,0,6.91-11.84c.61-1.58.36-3.48.74-5.18A26.29,26.29,0,0,1,175,68.78,15,15,0,0,1,185.15,66c3.45.27,5.5,2.48,5.68,6a10.92,10.92,0,0,1-2.08,6.86c-3.77,5.52-9.11,8.83-15.32,10.93l-.85.28a12.06,12.06,0,0,0,1.5,6.22,4,4,0,0,0,5.1,2A21.38,21.38,0,0,0,189.82,91a35.28,35.28,0,0,0,5.57-9.74c.2-.52.41-1,.71-1.77.92.7,1.78,1.31,2.59,2a.86.86,0,0,1,.09.75c-2.33,6.34-5.07,12.47-10.23,17.09a20.84,20.84,0,0,1-13,5.43c-4.54.25-7.5-2.21-9.58-6-.27-.49-.51-1-.77-1.48,0,0-.07,0-.06,0-1.11,1.89-2.1,3.84-3.33,5.63a14.29,14.29,0,0,1-8.9,6.24c-4,.86-6.83-.85-7.89-4.79-.86-3.18-.46-6.32.13-9.49Q146.23,89,147,83.05a8,8,0,0,0-.35-3.06c-.31-1.17-1.12-1.55-2.09-.88A17.84,17.84,0,0,0,141,82.23a27.36,27.36,0,0,0-5.42,12.23c-1.27,6.13-2.83,12.21-4.22,18.31a1.45,1.45,0,0,1-1.3,1.29c-2.39.48-4.75,1-7.14,1.56-1.08.23-1.28,0-1-1.08,1.9-8.74,3.82-17.47,5.68-26.21a16.59,16.59,0,0,0,.31-3.45c0-1.84-1.06-2.47-2.67-1.56a8.2,8.2,0,0,0-2.21,1.8,34.64,34.64,0,0,0-7.3,15.42c-1.16,5.47-2.44,10.9-3.64,16.36a1.65,1.65,0,0,1-1.51,1.42c-2.08.4-4.14.89-6.21,1.33-1.17.25-1.38,0-1.15-1.1l.6-3c0-.13,0-.26.07-.39Zm69.1-29.18c5.74-3,9.75-7.08,11-13.42a4.94,4.94,0,0,0-.18-2.22,1,1,0,0,0-1.59-.75,9.76,9.76,0,0,0-2.69,1.7C175.45,75.6,173.76,80.65,172.74,86.22Z"/><path class="cls-1" d="M163.8,37.15c-2.14.88-4.11,1.73-6.12,2.48-.27.1-.79-.19-1.07-.44A82.65,82.65,0,0,0,140,27.92,81.19,81.19,0,0,0,37.23,52.7a3.55,3.55,0,0,1-1.1,1c-3.65,2-7.33,3.9-11,5.83a9.13,9.13,0,0,1-.85.34c1.09-1.94,2-3.62,2.95-5.23,13.35-21.56,32.3-35.62,57.12-40.85,28.29-6,53.76.7,76.1,19.1A10.62,10.62,0,0,1,163.8,37.15Z"/><path class="cls-1" d="M108,201.86h-1.45l-7,0-6.76-.35,2.76-6.09c50.24,3.76,91.39-31.55,100.21-74.77l6.21.84c-.51,2.09-1,4.1-1.5,6.07a101.38,101.38,0,0,1-82,73.2C115,201.36,111.51,201.52,108,201.86Z"/><path class="cls-1" d="M160.85,62.35l-2.93.58c-1.11-1.36-.61-3.67-2.46-4.49l-.38.17c.28,1.54.55,3.08.84,4.69l-2.73.54c-.74-3.88-1.47-7.7-2.22-11.6,1.58-.3,3.05-.64,4.55-.84a2.76,2.76,0,0,1,3.12,1.49,3.19,3.19,0,0,1-.68,3.64l-.54.56C159.75,58,159.65,60.45,160.85,62.35Zm-6.64-8.23c.14.78.28,1.5.42,2.28,1-.15,1.77-.49,1.55-1.59S155.25,53.65,154.21,54.12Z"/><path class="cls-1" d="M131.28,68c-.75-3.93-1.47-7.68-2.24-11.69a27.92,27.92,0,0,1,5.06-.54,4,4,0,0,1,2.58,1.64,8.27,8.27,0,0,1,1.25,6.62,4,4,0,0,1-3,3.22C133.77,67.57,132.6,67.75,131.28,68Zm2.29-3c1.69-.41,2.11-1.92,1.41-4.53-.54-2-1.27-2.62-2.69-2.21C132.71,60.53,133.13,62.75,133.57,65.05Z"/><path class="cls-1" d="M171.43,56.68a12.63,12.63,0,0,1-.79,2.54,3.77,3.77,0,0,1-6.32.66A8.37,8.37,0,0,1,162.76,52a3.83,3.83,0,0,1,6.59-1.57C170.91,52,171.28,54,171.43,56.68Zm-2.85-.31.21-.06a38.7,38.7,0,0,0-1.19-3.69c-.17-.41-.91-.91-1.25-.83a1.68,1.68,0,0,0-1,1.19,19.9,19.9,0,0,0,.53,4.06c.18.79.6,1.71,1.66,1.55s1-1.19,1.1-2C168.59,56.53,168.58,56.45,168.58,56.37Z"/><path class="cls-1" d="M140.59,54.21,147.23,53l.46,2.35-3.83.8c.11.65.2,1.26.32,2l3.59-.63c.16.73.32,1.44.5,2.25l-3.6.77c.15.79.28,1.49.44,2.32l3.86-.66c.16.78.3,1.5.48,2.38l-6.63,1.3Z"/><path class="cls-1" d="M127.94,68.61a12,12,0,0,0-1.26.29c-1.21.45-2,.27-2.36-1.16-.06-.25-.66-.49-1-.53a4.84,4.84,0,0,0-1.35.26v2.32l-2.77.54c.15-2.49.3-4.86.45-7.24.07-1.12.23-2.24.19-3.35,0-1.31.52-1.87,1.77-1.91a9.16,9.16,0,0,0,1.13-.17C124.42,61.27,126.14,64.87,127.94,68.61Zm-5.81-6.71L122,62V65.2l1.29-.29C122.87,63.85,122.5,62.88,122.13,61.9Z"/><path class="cls-1" d="M97.87,74.41c.28-4.1.54-8.07.81-12.15l2.72-.57,5.27,11c-1,.19-1.92.65-2.64.42s-.9-1.22-1.35-1.9c-1.81.1-1.81.1-2.08,2.64C99.8,74,99,74.18,97.87,74.41Zm2.88-8.76V69.2L102,69C101.6,67.88,101.2,66.84,100.75,65.65Z"/><path class="cls-1" d="M112,66.55c0-1.88.06-3.76,0-5.63-.05-1,.23-1.48,1.27-1.5a11.64,11.64,0,0,0,1.71-.31c-.25,4.07-.49,8.07-.73,12.12a18.76,18.76,0,0,0-1.91.41c-.65.21-.92-.06-1.17-.62-1.51-3.38-3.06-6.75-4.66-10.28l2.94-.59,2.41,6.44Z"/><path class="cls-1" d="M95.05,72.42c.17.84.31,1.54.49,2.4l-6.46,1.27c-.74-3.84-1.47-7.66-2.24-11.61l2.77-.5c.54,2.76,1.11,5.37,1.52,8,.16,1,.6,1.13,1.43.93S94.12,72.6,95.05,72.42Z"/><path class="cls-7" d="M172.74,86.22c1-5.56,2.71-10.62,6.55-14.69a9.91,9.91,0,0,1,2.69-1.7,1,1,0,0,1,1.59.75,5.1,5.1,0,0,1,.18,2.22C182.49,79.13,178.47,83.25,172.74,86.22Z"/><path class="cls-7" d="M154.21,54.12c1-.48,1.76-.33,2,.69s-.53,1.44-1.55,1.59C154.49,55.62,154.35,54.9,154.21,54.12Z"/><path class="cls-7" d="M133.57,65.05l-1.28-6.74c1.43-.41,2.15.2,2.69,2.21C135.68,63.13,135.26,64.64,133.57,65.05Z"/><path class="cls-7" d="M168.58,56.37a1.92,1.92,0,0,1,0,.24c-.13.8,0,1.83-1.1,2s-1.48-.76-1.66-1.55a20.63,20.63,0,0,1-.53-4.06,1.65,1.65,0,0,1,1.05-1.19c.34-.09,1.08.42,1.25.83a38.7,38.7,0,0,1,1.19,3.69Z"/><path class="cls-7" d="M122.13,61.9c.37,1,.73,2,1.13,3l-1.29.29V62Z"/><path class="cls-7" d="M100.75,65.65c.46,1.19.85,2.23,1.28,3.35l-1.28.2Z"/></g></g></svg>