<?xml version="1.0" encoding="utf-8"?>
<!-- Generator: Adobe Illustrator 24.3.0, SVG Export Plug-In . SVG Version: 6.00 Build 0)  -->
<svg version="1.1" id="Capa_1" xmlns="http://www.w3.org/2000/svg" xmlns:xlink="http://www.w3.org/1999/xlink" x="0px" y="0px"
	 viewBox="0 0 595.28 841.89" style="enable-background:new 0 0 595.28 841.89;" xml:space="preserve">
<style type="text/css">
	.st0{fill:#3460AA;}
	.st1{fill:#9EA9D7;}
	.st2{fill:#BAC1E3;}
	.st3{fill:#6880BF;}
	.st4{fill:#677FBE;}
	.st5{fill:#325FAA;}
	.st6{fill:#FDFDFE;}
</style>
<g>
	<path class="st0" d="M204.78,181.24c2.22,0.19,4.44,0.39,6.91,0.61c-1.02,2.02-1.92,3.87-2.9,5.66c-0.12,0.21-0.69,0.26-1.05,0.24
		c-2.79-0.13-5.58-0.42-8.37-0.43c-23.04-0.06-43.54,7.17-61.34,21.81c-12.21,10.04-21.23,22.48-27.33,37.05
		c-0.22,0.53-0.57,1.06-0.98,1.45c-2.84,2.68-5.72,5.33-8.83,7.86c0.67-2.13,1.25-4.3,2.04-6.39c12.95-34.59,37.3-56.53,73.13-65.52
		c5.2-1.3,10.65-1.59,15.98-2.35c0.79-0.01,1.57-0.01,2.36-0.02c0.66-0.06,1.32-0.13,1.98-0.19c1.28,0,2.56,0,3.84,0
		c0.74,0.07,1.47,0.13,2.21,0.2C203.2,181.22,203.99,181.23,204.78,181.24z"/>
	<path class="st1" d="M194.92,383.1c-0.03-0.06-0.04-0.12-0.04-0.18c2.33-0.01,4.67-0.02,7-0.04c-0.01,0.07-0.01,0.15-0.01,0.22
		C199.56,383.1,197.24,383.1,194.92,383.1z"/>
	<path class="st2" d="M95.54,284.47c-0.07-0.01-0.14-0.02-0.22-0.01c0-1.2,0-2.4,0-3.6c0.07,0,0.14-0.01,0.21-0.01
		C95.54,282.06,95.54,283.26,95.54,284.47z"/>
	<path class="st2" d="M194.39,181.21c-0.79,0.01-1.57,0.01-2.36,0.02c0.01-0.07,0.02-0.14,0.02-0.21c0.8,0,1.6,0,2.4,0
		C194.42,181.08,194.4,181.15,194.39,181.21z"/>
	<path class="st2" d="M204.78,181.24c-0.79-0.01-1.58-0.01-2.37-0.02c-0.01-0.07-0.03-0.13-0.05-0.2c0.8,0,1.6,0,2.4,0
		C204.75,181.09,204.75,181.17,204.78,181.24z"/>
	<path class="st3" d="M202.36,181.02c0.02,0.07,0.03,0.13,0.05,0.2c-0.74-0.07-1.47-0.13-2.21-0.2
		C200.92,181.02,201.64,181.02,202.36,181.02z"/>
	<path class="st4" d="M194.39,181.21c0.01-0.06,0.03-0.13,0.06-0.19c0.64,0,1.28,0,1.92,0
		C195.71,181.08,195.05,181.15,194.39,181.21z"/>
	<path class="st2" d="M201.88,383.1c-0.01-0.07,0-0.15,0.01-0.22c0.48,0,0.96,0,1.45,0c-0.02,0.07-0.03,0.14-0.01,0.22
		C202.84,383.1,202.36,383.1,201.88,383.1z"/>
	<path class="st5" d="M174.95,327.9c1.93,0.74,3.85,1.52,5.8,2.23c4.32,1.57,8.17,0.72,11.5-2.41c1.34-1.26,2.59-2.61,3.83-3.97
		c0.5-0.55,0.93-0.7,1.65-0.39c1.69,0.72,3.41,1.37,5.12,2.02c4.07,1.55,8.35,0.49,11.26-2.73c1.18-1.3,2.44-2.53,3.61-3.85
		c0.45-0.5,0.81-0.59,1.43-0.35c1.74,0.7,3.51,1.33,5.27,1.97c3.73,1.36,8.21,0.26,10.9-2.65c1.3-1.41,2.61-2.82,3.97-4.17
		c0.25-0.25,0.85-0.39,1.18-0.28c1.63,0.54,3.22,1.2,4.83,1.78c4.65,1.69,8.71,0.76,12.15-2.79c1.17-1.21,2.35-2.4,3.44-3.68
		c0.55-0.65,1.03-0.67,1.75-0.38c1.51,0.62,3.04,1.2,4.59,1.73c4,1.35,8.02,0.89,10.65-3.17c1.32-2.04,2.48-4.18,3.79-6.42
		c1.11,0.15,2.4,0.33,3.88,0.53c-0.49,1.91-0.91,3.73-1.43,5.51c-9.36,32.01-35.56,56.27-68.31,62.09
		c-30.61,5.43-57.84-2.17-80.83-23.52c-3.12-2.9-5.78-6.29-8.61-9.49c-1.1-1.25-1.04-1.3,0.12-2.51c0.28-0.29,0.51-0.61,0.79-0.94
		c1.85,1.55,3.52,3.11,5.36,4.43c2,1.44,4.08,2.83,6.29,3.91c3.71,1.82,7.57,0.85,10.28-2.26c1.13-1.3,2.3-2.56,3.4-3.88
		c0.48-0.57,0.9-0.74,1.64-0.46c1.6,0.61,3.24,1.14,4.87,1.66c4.32,1.38,8.13,0.52,11.34-2.7
		C171.97,331.24,173.38,329.6,174.95,327.9z"/>
	<path class="st0" d="M95.54,284.47c0-1.21,0-2.42,0-3.63c0.61-6.43,3.19-12.1,6.92-17.24c6.53-9,15.48-14.6,26.07-17.45
		c5.1-1.37,10.43-1.88,15.67-2.72c3.82-0.62,7.66-1.13,11.49-1.72c0.45-0.07,0.84-0.42,1.28-0.61c2.55-1.12,5.02-2.49,7.67-3.28
		c4.75-1.42,9.49,2.13,9.34,7.1c-0.11,3.48-0.66,7.01-1.52,10.39c-2.44,9.56-4.8,19.12-6.44,28.85c-1.09,6.47-2.16,12.94-1.77,19.53
		c0.14,2.34,0.52,4.68,0.97,6.99c0.29,1.5,0.95,2.87,2.69,3.35c0.99,0.27,1.04,1.16,0.55,1.83c-0.7,0.96-1.49,1.91-2.43,2.61
		c-5.02,3.75-10.75,1.6-12.12-4.52c-1.14-5.09-1.06-10.23-0.37-15.37c0.35-2.65,0.8-5.29,1.26-7.92c0.45-2.59,0.98-5.16,1.52-7.93
		c-1.79,0.37-3.49,0.71-5.18,1.08c-3.16,0.68-6.31,1.44-9.48,2.04c-1.03,0.2-1.42,0.67-1.68,1.62c-1.72,6.23-3.34,12.5-5.31,18.65
		c-1.51,4.7-3.43,9.25-6.66,13.17c-3.97,4.81-10.71,5.79-15.58-0.28c-1.03-1.28-1.57-2.77-1.27-4.47c0.15-0.81,0.44-1.17,1.39-0.81
		c0.61,0.24,1.42,0.25,2.06,0.08c2.3-0.6,3.99-2.1,5.44-3.92c3.33-4.18,5.56-8.96,7.37-13.92c2.91-7.94,5.56-15.98,8.45-23.92
		c2.94-8.06,6.63-15.75,11.97-22.55c0.54-0.69,1.1-1.35,1.82-2.23c-1.9,0.17-3.59,0.21-5.24,0.48c-5.23,0.86-10.59,1.33-15.65,2.82
		c-8.72,2.57-14.78,8.65-19.01,16.55c-2.58,4.82-4.19,9.98-3.58,15.53c0.21,1.94,0.8,3.94,1.67,5.68c1.4,2.78,3.93,3.6,6.91,2.68
		c3.95-1.22,7.41-6.29,7.25-10.6c-0.01-0.39,0-0.78,0-1.17c1.62-0.31,3.09,0.69,3.54,2.43c0.47,1.83,0.37,3.66-0.2,5.44
		c-1.87,5.92-5.32,10.37-11.63,11.93c-6.53,1.62-13.88-2.19-16.64-8.7C96.29,288.5,96.03,286.44,95.54,284.47z M142.06,280.1
		c0.3,0.02,0.42,0.05,0.53,0.03c4.83-1.04,9.67-2.07,14.49-3.16c0.29-0.07,0.61-0.55,0.7-0.9c2.05-8.16,4.1-16.31,6.07-24.48
		c0.56-2.34,0.88-4.74,1.36-7.36c-1.46,0.44-2.51,0.98-3.58,1.04c-2.79,0.14-4.49,1.72-5.85,3.92c-0.31,0.51-0.69,0.98-1.02,1.48
		C148.84,259.71,145.3,269.78,142.06,280.1z"/>
	<path class="st0" d="M198.96,296.42c-2.22,2.68-4.74,5.07-7.98,6.35c-2.41,0.96-5.02,1.64-7.6,1.92c-3.7,0.41-6.54-1.45-8.61-4.45
		c-2.59-3.76-3.38-8.01-2.85-12.45c0.91-7.64,4.32-13.99,10.48-18.7c2.67-2.04,5.73-3.13,9.13-3.15c4.53-0.02,7.27,3.38,6.24,7.8
		c-0.47,2.01-1.56,3.7-3.24,4.89c-0.66,0.46-1.51,0.69-2.31,0.88c-0.36,0.08-0.96-0.08-1.17-0.35c-0.17-0.21,0-0.8,0.17-1.15
		c0.82-1.74,1.65-3.48,1.52-5.47c-0.04-0.62-0.2-1.26-0.43-1.84c-0.36-0.9-1.1-1.2-2.05-1c-1.58,0.33-2.72,1.32-3.7,2.5
		c-3.3,4-4.96,8.7-5.8,13.74c-0.44,2.62-0.45,5.25,0.25,7.85c0.15,0.58,0.35,1.15,0.6,1.69c1.47,3.17,3.59,4.08,6.81,2.7
		c4.96-2.14,8.42-5.88,11.19-10.45c2.6-4.31,3.66-9.06,4.7-13.87c0.67-3.08,1.44-6.14,2.08-9.23c0.18-0.89,0.6-1.32,1.44-1.49
		c2.15-0.44,4.3-0.89,6.44-1.39c1.04-0.24,1.22,0.19,1.03,1.06c-0.25,1.08-0.49,2.17-0.77,3.41c1.2-1.31,2.21-2.55,3.36-3.63
		c2.06-1.94,4.53-3.1,7.37-3.43c3.16-0.38,5.27,0.99,6.17,4.03c0.11,0.38,0.21,0.76,0.3,1.1c1.16-1.58,2.24-3.26,3.53-4.75
		c2.51-2.91,5.85-4.31,9.6-4.53c4.18-0.25,6.95,2.54,6.85,7.11c-0.06,2.68-0.76,5.36-1.23,8.02c-0.67,3.81-1.43,7.61-2.05,11.42
		c-0.17,1.06-0.32,2.42,0.98,2.93c1.2,0.47,2-0.54,2.7-1.34c3.05-3.5,5.24-7.55,6.91-11.84c0.61-1.58,0.36-3.48,0.74-5.18
		c1.5-6.72,4.86-12.3,10.53-16.33c3.02-2.15,6.45-3.1,10.18-2.8c3.45,0.27,5.5,2.48,5.68,5.95c0.13,2.55-0.67,4.79-2.08,6.86
		c-3.77,5.52-9.11,8.83-15.32,10.93c-0.26,0.09-0.52,0.17-0.85,0.28c0.03,2.21,0.36,4.32,1.5,6.22c1.21,2.02,2.83,2.68,5.1,2.03
		c4.33-1.24,7.79-3.81,10.64-7.24c2.42-2.91,4.18-6.22,5.57-9.74c0.2-0.52,0.41-1.03,0.71-1.77c0.92,0.7,1.78,1.31,2.59,1.98
		c0.14,0.12,0.17,0.53,0.09,0.75c-2.33,6.34-5.07,12.47-10.23,17.09c-3.68,3.29-8.06,5.16-13.02,5.43c-4.54,0.25-7.5-2.21-9.58-5.97
		c-0.27-0.49-0.51-0.99-0.77-1.48c-0.01-0.03-0.07-0.04-0.06-0.03c-1.11,1.89-2.1,3.84-3.33,5.63c-2.17,3.16-5.05,5.4-8.9,6.24
		c-3.98,0.86-6.83-0.85-7.89-4.79c-0.86-3.18-0.46-6.32,0.13-9.49c0.73-3.92,1.36-7.86,1.91-11.81c0.14-0.99-0.09-2.07-0.35-3.06
		c-0.31-1.17-1.12-1.55-2.09-0.88c-1.3,0.9-2.58,1.92-3.58,3.12c-2.93,3.55-4.49,7.73-5.42,12.23c-1.27,6.13-2.83,12.21-4.22,18.31
		c-0.18,0.79-0.52,1.13-1.3,1.29c-2.39,0.48-4.75,1.05-7.14,1.56c-1.08,0.23-1.28-0.01-1.05-1.08c1.9-8.74,3.82-17.47,5.68-26.21
		c0.24-1.12,0.31-2.3,0.31-3.45c0-1.84-1.06-2.47-2.67-1.56c-0.82,0.46-1.61,1.09-2.21,1.8c-3.78,4.49-6.08,9.69-7.3,15.42
		c-1.16,5.47-2.44,10.9-3.64,16.36c-0.19,0.88-0.66,1.26-1.51,1.42c-2.08,0.4-4.14,0.89-6.21,1.33c-1.17,0.25-1.38,0.05-1.15-1.1
		c0.2-1.02,0.4-2.03,0.6-3.05c0.02-0.13,0.05-0.26,0.07-0.39C199.09,296.24,199.03,296.33,198.96,296.42z M268.06,267.24
		c5.74-2.97,9.75-7.08,11.01-13.42c0.14-0.71,0.02-1.51-0.18-2.22c-0.2-0.74-0.83-1.15-1.59-0.75c-0.94,0.49-1.99,0.95-2.69,1.7
		C270.77,256.62,269.08,261.67,268.06,267.24z"/>
	<path class="st0" d="M259.12,218.17c-2.14,0.88-4.11,1.73-6.12,2.48c-0.27,0.1-0.79-0.19-1.07-0.44
		c-5.1-4.41-10.61-8.21-16.63-11.27c-8.55-4.36-17.57-7.14-27.1-8.28c-15.58-1.86-30.49,0.52-44.66,7.25
		c-12.52,5.95-22.83,14.6-30.99,25.81c-0.29,0.4-0.67,0.82-1.1,1.05c-3.65,1.97-7.33,3.9-11,5.83c-0.16,0.09-0.34,0.14-0.85,0.34
		c1.09-1.94,1.96-3.62,2.95-5.23c13.35-21.56,32.3-35.62,57.12-40.85c28.29-5.96,53.76,0.7,76.1,19.1
		C257.12,215.07,258.36,216.32,259.12,218.17z"/>
	<path class="st0" d="M203.34,382.88c-0.48,0-0.96,0-1.45,0c-2.33,0.01-4.67,0.02-7,0.04c-2.18-0.11-4.36-0.22-6.76-0.35
		c0.98-2.17,1.88-4.15,2.76-6.09c50.24,3.76,91.39-31.55,100.21-74.77c1.99,0.27,3.99,0.54,6.21,0.84c-0.51,2.09-0.95,4.1-1.5,6.07
		c-4.54,16.46-12.69,30.89-24.53,43.19c-15.79,16.4-34.98,26.4-57.45,30.01C210.36,382.38,206.83,382.54,203.34,382.88z"/>
	<path class="st0" d="M256.17,243.37c-1.15,0.23-2.05,0.4-2.93,0.58c-1.11-1.36-0.61-3.67-2.46-4.49c-0.13,0.06-0.25,0.11-0.38,0.17
		c0.28,1.54,0.55,3.08,0.84,4.69c-0.92,0.18-1.77,0.35-2.73,0.54c-0.74-3.88-1.47-7.7-2.22-11.6c1.58-0.3,3.05-0.64,4.55-0.84
		c1.5-0.21,2.6,0.38,3.12,1.49c0.57,1.23,0.32,2.6-0.68,3.64c-0.17,0.17-0.33,0.34-0.54,0.56
		C255.07,239.03,254.97,241.47,256.17,243.37z M249.53,235.14c0.14,0.78,0.28,1.5,0.42,2.28c1.01-0.15,1.77-0.49,1.55-1.59
		C251.29,234.81,250.57,234.67,249.53,235.14z"/>
	<path class="st0" d="M226.6,249.04c-0.75-3.93-1.47-7.68-2.24-11.69c1.73-0.21,3.41-0.65,5.06-0.54c0.91,0.06,2.03,0.85,2.58,1.64
		c1.37,1.96,1.75,4.26,1.25,6.62c-0.35,1.64-1.35,2.8-3.02,3.22C229.09,248.59,227.92,248.77,226.6,249.04z M228.89,246.07
		c1.69-0.41,2.11-1.92,1.41-4.53c-0.54-2-1.27-2.62-2.69-2.21C228.03,241.55,228.45,243.77,228.89,246.07z"/>
	<path class="st0" d="M266.75,237.7c-0.16,0.52-0.31,1.61-0.79,2.54c-1.27,2.47-4.57,2.8-6.32,0.66c-1.91-2.33-2.36-5.07-1.56-7.91
		c0.85-3.02,4.37-3.81,6.59-1.57C266.23,233,266.6,235.03,266.75,237.7z M263.9,237.39c0.07-0.02,0.14-0.04,0.21-0.06
		c-0.38-1.24-0.69-2.5-1.19-3.69c-0.17-0.41-0.91-0.91-1.25-0.83c-0.44,0.12-1.06,0.78-1.05,1.19c0.03,1.36,0.22,2.73,0.53,4.06
		c0.18,0.79,0.6,1.71,1.66,1.55c1.09-0.16,0.98-1.19,1.1-1.99C263.91,237.55,263.9,237.47,263.9,237.39z"/>
	<path class="st0" d="M235.91,235.23c2.28-0.43,4.39-0.83,6.64-1.26c0.16,0.81,0.3,1.53,0.46,2.35c-1.28,0.27-2.47,0.52-3.83,0.8
		c0.11,0.65,0.2,1.26,0.32,1.99c1.2-0.21,2.33-0.41,3.59-0.63c0.16,0.73,0.32,1.44,0.5,2.25c-1.22,0.26-2.37,0.51-3.6,0.77
		c0.15,0.79,0.28,1.49,0.44,2.32c1.29-0.22,2.53-0.43,3.86-0.66c0.16,0.78,0.3,1.5,0.48,2.38c-2.17,0.42-4.3,0.84-6.63,1.3
		C237.4,242.99,236.67,239.18,235.91,235.23z"/>
	<path class="st0" d="M223.26,249.63c-0.49,0.11-0.89,0.16-1.26,0.29c-1.21,0.45-2.03,0.27-2.36-1.16
		c-0.06-0.25-0.66-0.49-1.04-0.53c-0.41-0.04-0.85,0.15-1.35,0.26c0,0.78,0,1.53,0,2.32c-0.93,0.18-1.78,0.35-2.77,0.54
		c0.15-2.49,0.3-4.86,0.45-7.24c0.07-1.12,0.23-2.24,0.19-3.35c-0.05-1.31,0.52-1.87,1.77-1.91c0.35-0.01,0.7-0.1,1.13-0.17
		C219.74,242.29,221.46,245.89,223.26,249.63z M217.45,242.92c-0.05,0.02-0.1,0.04-0.16,0.06c0,1.06,0,2.12,0,3.24
		c0.44-0.1,0.81-0.18,1.29-0.29C218.19,244.87,217.82,243.9,217.45,242.92z"/>
	<path class="st0" d="M193.19,255.43c0.28-4.1,0.54-8.07,0.81-12.15c0.88-0.19,1.76-0.37,2.72-0.57c1.75,3.66,3.48,7.28,5.27,11.01
		c-0.97,0.19-1.92,0.65-2.64,0.42c-0.59-0.19-0.9-1.22-1.35-1.9c-1.81,0.1-1.81,0.1-2.08,2.64
		C195.12,255.03,194.27,255.2,193.19,255.43z M196.07,246.67c0,1.3,0,2.39,0,3.55c0.49-0.08,0.83-0.13,1.28-0.2
		C196.92,248.9,196.52,247.86,196.07,246.67z"/>
	<path class="st0" d="M207.36,247.57c0-1.88,0.06-3.76-0.03-5.63c-0.05-1.01,0.23-1.48,1.27-1.5c0.51-0.01,1.02-0.18,1.71-0.31
		c-0.25,4.07-0.49,8.07-0.73,12.12c-0.68,0.14-1.32,0.22-1.91,0.41c-0.65,0.21-0.92-0.06-1.17-0.62c-1.51-3.38-3.06-6.75-4.66-10.28
		c1.01-0.2,1.95-0.39,2.94-0.59c0.83,2.22,1.62,4.33,2.41,6.44C207.25,247.6,207.31,247.59,207.36,247.57z"/>
	<path class="st0" d="M190.37,253.44c0.17,0.84,0.31,1.54,0.49,2.4c-2.12,0.42-4.21,0.83-6.46,1.27c-0.74-3.84-1.47-7.66-2.24-11.61
		c0.95-0.17,1.82-0.33,2.77-0.5c0.54,2.76,1.11,5.37,1.52,8c0.16,1.04,0.6,1.13,1.43,0.93
		C188.65,253.75,189.44,253.62,190.37,253.44z"/>
	<path class="st6" d="M268.06,267.24c1.02-5.56,2.71-10.62,6.55-14.69c0.71-0.75,1.75-1.21,2.69-1.7c0.76-0.4,1.39,0.01,1.59,0.75
		c0.19,0.71,0.32,1.52,0.18,2.22C277.81,260.15,273.79,264.27,268.06,267.24z"/>
	<path class="st6" d="M249.53,235.14c1.04-0.48,1.76-0.33,1.97,0.69c0.22,1.1-0.53,1.44-1.55,1.59
		C249.81,236.64,249.67,235.92,249.53,235.14z"/>
	<path class="st6" d="M228.89,246.07c-0.44-2.31-0.86-4.53-1.28-6.74c1.43-0.41,2.15,0.2,2.69,2.21
		C231,244.15,230.58,245.66,228.89,246.07z"/>
	<path class="st6" d="M263.9,237.39c0,0.08,0.01,0.16,0,0.24c-0.13,0.8-0.02,1.83-1.1,1.99c-1.06,0.16-1.48-0.76-1.66-1.55
		c-0.3-1.33-0.5-2.7-0.53-4.06c-0.01-0.42,0.61-1.08,1.05-1.19c0.34-0.09,1.08,0.42,1.25,0.83c0.5,1.19,0.81,2.45,1.19,3.69
		C264.04,237.35,263.97,237.37,263.9,237.39z"/>
	<path class="st6" d="M217.45,242.92c0.37,0.97,0.73,1.95,1.13,3c-0.48,0.11-0.85,0.19-1.29,0.29c0-1.12,0-2.18,0-3.24
		C217.35,242.96,217.4,242.94,217.45,242.92z"/>
	<path class="st6" d="M196.07,246.67c0.46,1.19,0.85,2.23,1.28,3.35c-0.46,0.07-0.79,0.12-1.28,0.2
		C196.07,249.06,196.07,247.97,196.07,246.67z"/>
</g>
</svg>
