<svg id="Capa_1" data-name="Capa 1" xmlns="http://www.w3.org/2000/svg" viewBox="0 0 464 127.5"><defs><style>.cls-1{fill:#357ffd;}.cls-2{fill:#091842;}.cls-3{fill:#091840;}.cls-4{fill:#0a1942;}.cls-5{fill:#8768fb;}.cls-6{fill:#061640;}.cls-7{fill:#856dfb;}.cls-8{fill:#4380fc;}.cls-9{fill:#8a6afc;}.cls-10{fill:#537cfc;}.cls-11{fill:#6876fc;}.cls-12{fill:#826cfb;}.cls-13{fill:#7871fc;}.cls-14{fill:#3f7ffd;}.cls-15{fill:#4a7ffd;}.cls-16{fill:#0a1b47;}.cls-17{fill:#07153b;}.cls-18{fill:#5d79fc;}.cls-19{fill:#0f1d41;}.cls-20{fill:#9166fb;}.cls-21{fill:#8c80f7;}.cls-22{fill:#010628;}.cls-23{fill:#5a9dfc;}.cls-24{fill:#68b6fc;}</style></defs><path class="cls-1" d="M24.61,51.41a26.42,26.42,0,0,0-1.42-2.75c-1.24-1.86-2.87-3.53-3.81-5.52-1.66-3.53.14-6.12,4-6.14.67,0,1.34,0,2,0,6.47.2,12.67,0,18.72-3.37,6.8-3.76,14.51-4,22.14-2.63a65.87,65.87,0,0,1,7.05,2.06c-.88,2.52-2,4.67-4.74,5.92-2.13,1-3.86,2.84-5.76,4.31-7.76-.47-14.86,1.3-21,6.17-1-.5-2-1.33-3.11-1.43a7.65,7.65,0,0,0-7.4,3.59c-1,1.56-2.39,1.62-3.9,1.08A28.78,28.78,0,0,1,24.61,51.41Z"/><path class="cls-2" d="M229.77,89c-2.52-1.09-2.52-1.09-3-4-2.44,1.13-4.84,2.69-7.47,3.37A17,17,0,0,1,198.78,76.6a11.2,11.2,0,0,0-.47-1.13c-.83-6.51.51-12.33,5.42-17,6.56-5,13.46-6,20.8-1.76l-.27.28a12.31,12.31,0,0,1-1.61-.58c-1.37-.71-2.61-.9-3.75.43s-.42,2.4.36,3.49c-6.17-1.31-10.83.42-13.66,5.08A11.85,11.85,0,0,0,206.47,79c3.52,4.54,12,6.76,18.1,0L232.25,82c.17,1.5.33,3,.49,4.5l.1.5Z"/><path class="cls-3" d="M165.25,88c-3.51,1.69-4.9.85-5.52-3.34-8.27,6.75-19.5,4.16-24.15-1a17.75,17.75,0,0,1-1.66-21.84,17.16,17.16,0,0,1,20.86-6.33c-.8,1.67-3.32,2.82-1.6,5.26-7-2-12.75.25-15.35,5.93-3,6.5.15,16.31,11.23,16.77l.61-.06,1.09-.26c.32.93.76,2.68,1,2.65,1.59-.22,3.59-.32,4.6-1.33,1.4-1.41-.86-2-1.54-2.91l3.91-4.09c-.07.57-.42,1.38-.17,1.66,1.89,2.11,3.49,4.67,6.75,4.91l.47,2.49Z"/><path class="cls-3" d="M303.75,56.77l2.48,1.68c.35-.63,1-1.26,1-1.9.09-4.33.07-8.66,0-13a9.28,9.28,0,0,0-.48-2.09c1-.66,2-1.92,2.92-1.83s1.72,1.5,2.57,2.33a7.87,7.87,0,0,0-.46,1.84q-.06,13.67,0,27.34a7.31,7.31,0,0,0,.49,1.83c-.18,6.56-4.93,12.7-11.58,15-6.44,2.19-14.35.3-18.21-4.36l5.3-2.62c.66.35,1.3.71,2,1a11.55,11.55,0,0,0,16.5-8c1.2-5.78-1.26-10-6-13.07.43-.34.81-.85,1.3-1C303.27,59.53,304,58.53,303.75,56.77Z"/><path class="cls-4" d="M348.79,63l.87,1.23c.38,2.43.77,4.86,1.15,7.28-.67,1.93-2,2.53-4,2.51-7.64-.09-15.28,0-22.92,0-.17,4,2.7,7.23,8,9.2,2,2.13,1.58,3.42-1.27,4.3-.45.14-.87.35-1.3.52-6.72-1.87-11.41-7.87-11.92-15.25-.48-6.78,3.33-13.82,8.81-16.29a4.08,4.08,0,0,0,3.62,3c.35,0,.68.4,1,.61-3.45,1.86-6.54,4-7.09,8.39h20.88c-.06-.54-.11-1-.15-1.36Z"/><path class="cls-5" d="M92.81,93.05l-2,2.93a53,53,0,0,0-6.64-.42,3.7,3.7,0,0,0-2.65,1.7c-1.07,2.11-2.44,2.79-4.76,2.34-1.81-.36-3.87-.73-4.29,2.2-.09.63-1.28,1.14-2,1.64-1.17.8-2.39,1.52-3.55,2.33-.52.37-.86,1-1.41,1.3a3.52,3.52,0,0,0-2.17,4L46.67,123.29V111.45c.47-.3,1-.93,1.4-.86,4.4.82,7.37-2,10.09-4.47s6.13-4.09,9.43-5.79c1.75-.9,3.89-1.88,4.17-4.38l4.43-2.64c.89,1.63,2.13,1.3,4,.59L78,91.81,79.71,90c3.58,2.74,3.46,2.58,7.1-.38,2.07-1.68,4.62-2.75,7-4.1l1.55,3.08c-.16.34-.33.67-.5,1-1.84-1.22-4-.78-4.74.78-.92,1.84,1.69,1.63,2.59,2.51A1.49,1.49,0,0,1,92.81,93.05Z"/><path class="cls-6" d="M115.74,60.45c0-5.74,0-11.49,0-17.23,0-2.46,1.09-3.73,3-3.72s3,1.3,3,3.76c0,11.07,0,22.13,0,33.2,0,4.43,1.29,5.87,5.73,6.51a2.72,2.72,0,0,1,2.66,3c-.06,1.92-1.25,2.75-3.1,2.85-6,.32-11.22-4.74-11.31-11.16-.08-5.74,0-11.48,0-17.22Z"/><path class="cls-2" d="M241.72,60.87a17.12,17.12,0,0,1,17.91-6.25c6.72,1.73,11.18,5.84,12.59,12.86-.43,2.7-1.86,3.58-4.43,2.52a3.18,3.18,0,0,0-1,0l0-.5-.3-1.42c-3.54-9-13.9-11.19-19.74-4.13l-.87.75a14.72,14.72,0,0,1-1.44-.7c-1.16-.71-2.3-1.46-3.45-2.2l0-.05Z"/><path class="cls-2" d="M355.78,66.47c3-9,8.14-12.7,16.9-12.31,2.58.12,3.82,1.08,3.72,3-.13,2.49-1.85,2.79-3.88,2.78-6.46,0-9.39,2-10.58,7.44l-.28.57c-2.83,1.88-3.25,4.66-1.38,7.64.46.73.71,2.36.3,2.72-2,1.77-1.07,4-1.33,6-.1.84-.35,1.66-.53,2.49l-1-.13c0-.94,0-1.88,0-2.81,0-1.36-.59-2-1.94-1.93Q355.8,74.22,355.78,66.47Z"/><path class="cls-7" d="M397.25,80q1.26-3,2.5-6c3.71.7,7.46,1.62,10-2.43l14.88-.12c2.89,2,6.1,1.89,9.37,1.45l.78,2.1a7.42,7.42,0,0,0-2.41-.4A64.79,64.79,0,0,0,425,76.22c-.84.26-1.47,1.24-2.2,1.89-4.81.09-9.62.14-14.43.33a8.13,8.13,0,0,0-2.49,1.06c-.92,0-2-.45-2.73-.1A8,8,0,0,1,397.25,80Z"/><path class="cls-8" d="M62.76,43.29c1.9-1.47,3.63-3.35,5.76-4.31,2.76-1.25,3.86-3.4,4.74-5.92a33.22,33.22,0,0,1,13.16,8.35,21.87,21.87,0,0,1-10,5.64c-.48.13-.84.73-1.26,1.1Z"/><path class="cls-3" d="M188.18,80a62.47,62.47,0,0,1-3,6.56c-.58,1-1.95,2.25-2.9,2.2a4.52,4.52,0,0,1-3.09-2.28c-2-3.91-3.67-8-5.51-12a20.25,20.25,0,0,0-1.28-2.07l-2-5.22c2.45.21,3.6-1.52,4.79-3.19l2.94,6c1.18,2.64,2.33,5.29,3.56,7.9.13.29.7.38,1.06.56C184.73,78.46,186.89,77.65,188.18,80Z"/><path class="cls-9" d="M63.31,111.1a3.52,3.52,0,0,1,2.17-4c.55-.25.89-.93,1.41-1.3,1.16-.81,2.38-1.53,3.55-2.33.73-.5,1.92-1,2-1.64.42-2.93,2.48-2.56,4.29-2.2,2.32.45,3.69-.23,4.76-2.34a3.7,3.7,0,0,1,2.65-1.7,53,53,0,0,1,6.64.42A37.2,37.2,0,0,1,63.31,111.1Z"/><path class="cls-10" d="M75.21,48.15c.42-.37.78-1,1.26-1.1a21.87,21.87,0,0,0,10-5.64A32.94,32.94,0,0,1,95,52.93C90.5,53.12,87.9,57,84,58.41Z"/><path class="cls-11" d="M84,58.41C87.9,57,90.5,53.12,95,52.93q1.92,6,3.85,12.05c-1.25.48-2.52.91-3.75,1.45-2.64,1.15-5.25,2.36-7.88,3.54l-.9-4.5Z"/><path class="cls-12" d="M71.76,96c-.28,2.5-2.42,3.48-4.17,4.38-3.3,1.7-6.57,3.21-9.43,5.79s-5.69,5.29-10.09,4.47c-.4-.07-.93.56-1.4.86a2.5,2.5,0,0,0-1.93-2.9c.14-.71,0-1.64.46-2.08,2.12-2.24,4.39-4.34,6.57-6.52a9.89,9.89,0,0,0,1-1.55l3,.19c1.07,1.51,2.26,1.15,3.48.21Z"/><path class="cls-13" d="M52.79,98.4a9.89,9.89,0,0,1-1,1.55c-2.18,2.18-4.45,4.28-6.57,6.52-.42.44-.32,1.37-.46,2.08a30.57,30.57,0,0,1-12-7.09Q38,97.64,43.13,93.79Z"/><path class="cls-14" d="M24.61,51.41A28.78,28.78,0,0,0,27.3,52.7c1.51.54,2.87.48,3.9-1.08A7.65,7.65,0,0,1,38.6,48c1.07.1,2.07.93,3.11,1.43L34.77,58c-1.39.1-3.12-.29-4.11.4-3.33,2.29-6.6,4.53-10.73,5.09Z"/><path class="cls-12" d="M93.76,85.47c-2.33,1.35-4.88,2.42-7,4.1-3.64,3-3.52,3.12-7.1.38l6.44-11.2c.8.35,1.81,1.2,2.36,1a49.22,49.22,0,0,0,6.71-3.51c1-.63,1.62-1,2.33.27.24.43.82.68,1.25,1l-2.55,9Z"/><path class="cls-11" d="M43.13,93.79Q38,97.63,32.77,101.46l-7.47-9c2.11-1.26,4.21-2.53,6.34-3.75,1.44-.82,2.92-1.55,4.38-2.32Z"/><path class="cls-15" d="M19.93,63.46c4.13-.56,7.4-2.8,10.73-5.09,1-.69,2.72-.3,4.11-.4l-3.18,12.5c-1.06.07-2.29-.18-3.16.26-3,1.5-6.07,1.23-9.19,1.24Z"/><path class="cls-16" d="M348.79,63l-4.35,4.12c-1.34-3.83-3.86-6.44-7.93-7.08a34.06,34.06,0,0,0-5.71,0c-.34-.21-.67-.58-1-.61a4.08,4.08,0,0,1-3.62-3A16,16,0,0,1,348.79,63Z"/><path class="cls-17" d="M232.25,82l-7.68-3.07c3.93-6.68,3.41-11.14-2-16.87l3.16-3.56.5-.52c3.48,2.16,4.94,5.71,6.37,9.29,0,.91.07,1.82.11,2.74a12.64,12.64,0,0,0-.46,2.33C232.23,75.53,232.26,78.75,232.25,82Z"/><path class="cls-13" d="M98.8,77.48c-.43-.33-1-.58-1.25-1-.71-1.29-1.32-.9-2.33-.27a49.22,49.22,0,0,1-6.71,3.51c-.55.24-1.56-.61-2.36-1q.51-4.38,1-8.78c2.63-1.18,5.24-2.39,7.88-3.54,1.23-.54,2.5-1,3.75-1.45Q98.81,71.22,98.8,77.48Z"/><path class="cls-18" d="M36,86.39c-1.46.77-2.94,1.5-4.38,2.32-2.13,1.22-4.23,2.49-6.34,3.75l-4.47-10c4.13-.46,7.52-3.85,12-3L34.4,83Z"/><path class="cls-10" d="M32.81,79.47c-4.46-.85-7.85,2.54-12,3L19.24,72c3.12,0,6.23.26,9.19-1.24.87-.44,2.1-.19,3.16-.26.2,1.68.39,3.36.59,5,.2,1.15.4,2.3.61,3.46Z"/><path class="cls-17" d="M277.7,68.47c1.32-5.72,4.22-10.22,9.81-12.62a6.86,6.86,0,0,0,4.75,4.09c-6.68,2.64-8.93,6-8.94,13.42-.52.27-1,.74-1.54.77-1.31.05-2.62-.1-3.93-.16Z"/><path class="cls-15" d="M407.08,57l2.73-6.51c2.62-.42,5.47-.34,7.8-1.39,2-.91,3.67-1.81,5.78-.65l2.41,5-7.12,2-1.45-2.25-1.42,2.37c-1.63-1.65-3.15-1.53-5-.09C409.84,56.33,408.35,56.52,407.08,57Z"/><path class="cls-13" d="M434,72.87c-3.27.44-6.48.55-9.37-1.45L422.07,64,429.4,62Z"/><path class="cls-16" d="M292.26,59.94a6.86,6.86,0,0,1-4.75-4.09,16.2,16.2,0,0,1,16.24.92c.28,1.76-.48,2.76-2.19,3.22-.49.13-.87.64-1.3,1Z"/><path class="cls-19" d="M238.44,87.4,238.31,82l3.81,1.24c.36-1.31.61-2.44,1-3.53,1.19-3.42-.06-5.1-3.55-4.72-.41,0-.83,0-1.25,0q.12-3.93.23-7.86l.25-.13a20.64,20.64,0,0,0,2.09,3.71c.32.39,1.64.2,2.34-.09.47-.19.65-1.06,1-1.62,0,5.19,0,10.37,0,15.56a17.81,17.81,0,0,1-.65,3.33C241.65,89.32,240,89.09,238.44,87.4Z"/><path class="cls-14" d="M423.39,48.43c-2.11-1.16-3.75-.26-5.78.65-2.33,1.05-5.18,1-7.8,1.39l2.94-7,8.38-1.5Q422.26,45.19,423.39,48.43Z"/><path class="cls-20" d="M397.25,80a8,8,0,0,0,5.85-.57c.73-.35,1.81,0,2.73.1-1,2.46-1.86,5-3.07,7.36a3.38,3.38,0,0,1-4.64,1.71,4,4,0,0,1-2.56-5A37.8,37.8,0,0,1,397.25,80Z"/><path class="cls-18" d="M429.4,62,422.07,64l-3.39-8.54,7.12-2Z"/><path class="cls-1" d="M382.33,51c0-2.58-.13-5.15-.07-7.72a3.75,3.75,0,0,1,4-3.84,3.82,3.82,0,0,1,4,3.83c.05,1.24,0,2.48-.08,3.73a16.36,16.36,0,0,0-2,.76C386.24,48.78,384.29,49.88,382.33,51Z"/><path class="cls-19" d="M272.64,81.9q-.25,2.89-.49,5.81c-1.29.25-2.86,1.05-3.78.58s-1.52-2.2-1.59-3.41c-.18-3.29,0-6.61,0-9.91l3.88.41c-.14.65-.53,1.36-.36,1.88C270.88,78.9,269.58,81.51,272.64,81.9Z"/><path class="cls-10" d="M29.92,21.49c.91,3.53-.33,6.54-3.38,8.18a7.22,7.22,0,0,1-8.93-1.47c3.14-1.92,6.25-3.87,9.42-5.72A15.14,15.14,0,0,1,29.92,21.49Z"/><path class="cls-20" d="M437.35,81a16.83,16.83,0,0,1,1.29,3.21A3.61,3.61,0,0,1,436,88.63a3.74,3.74,0,0,1-4.78-2c-.8-1.82-1.41-3.72-2.11-5.59Z"/><path class="cls-16" d="M280.4,81.91,277.85,74c1.31.06,2.62.21,3.93.16.52,0,1-.5,1.54-.77l4.46,7.6-5.3,2.62C281.79,83,281.1,82.46,280.4,81.91Z"/><path class="cls-1" d="M15.76,24.47c-1-3,.83-6.74,4.11-8.26s6.78-.57,8.46,2.24c-.84.27-1.72.47-2.53.82-2.37,1-4.64,2.43-7.11,3C17.15,22.63,16.27,23.1,15.76,24.47Z"/><path class="cls-19" d="M355.85,86.45c0-.83,0-1.66,0-2.49.06,0,.18-.11.17-.13a1.89,1.89,0,0,0-.17-.35l0-1.51c1.35-.07,2,.57,1.94,1.93,0,.93,0,1.87,0,2.81l1,.13c.18-.83.43-1.65.53-2.49.26-2-.67-4.25,1.33-6,.41-.36.16-2-.3-2.72-1.87-3-1.45-5.76,1.38-7.64,0,5.53-.06,11.06.1,16.58.07,2.63-.88,4.08-3.49,4.39l-2.54-2,.24,0c0-.06.11-.14.09-.19A2.09,2.09,0,0,0,355.85,86.45Z"/><path class="cls-5" d="M437.35,81l-8.25,0c-.77-3.9-4.16-2.09-6.35-2.91.73-.65,1.36-1.63,2.2-1.89a64.79,64.79,0,0,1,7.43-1.65,7.42,7.42,0,0,1,2.41.4Q436.06,78,437.35,81Z"/><path class="cls-14" d="M15.76,24.47c.51-1.37,1.39-1.84,2.93-2.2,2.47-.57,4.74-2,7.11-3,.81-.35,1.69-.55,2.53-.82l1.59,3a15.14,15.14,0,0,0-2.89,1c-3.17,1.85-6.28,3.8-9.42,5.72l0-.07L17,27.56Z"/><path class="cls-11" d="M402.2,68.47c.7-1.83,1.4-3.67,2.11-5.5a7.18,7.18,0,0,0,2.29-.66,6.67,6.67,0,0,1,6.8-.8l-3,7a18.84,18.84,0,0,0-3.37-.57C405.44,68,403.82,68.29,402.2,68.47Z"/><path class="cls-13" d="M382.32,77q0-3.25,0-6.5l7.86-2,0,6.5Z"/><path class="cls-13" d="M402.2,68.47c1.62-.18,3.24-.48,4.87-.51a18.84,18.84,0,0,1,3.37.57c-.23,1-.45,2-.68,3-2.55,4-6.3,3.13-10,2.43C400.57,72.13,401.38,70.3,402.2,68.47Z"/><path class="cls-20" d="M390.1,80.93c0,1.4.19,2.81.1,4.21a3.85,3.85,0,0,1-4.11,3.75,3.79,3.79,0,0,1-3.85-4c0-1,.05-2,.08-3Z"/><path class="cls-18" d="M413.4,61.51a6.67,6.67,0,0,0-6.8.8,7.18,7.18,0,0,1-2.29.66c.92-2,1.85-4,2.78-6,1.26-.46,2.75-.65,3.75-1.45,1.82-1.44,3.34-1.56,5,.09C415,57.59,414.2,59.55,413.4,61.51Z"/><path class="cls-13" d="M177.05,106.57c-.77-2.88.46-5.08,2.61-6.75a5.78,5.78,0,0,1,6.79-.31,5.87,5.87,0,0,1,3.23,6.44H187.3c-.05-2.25-.68-4.15-3.25-4.56-3.33-.53-5,1.61-4.46,5.51Z"/><path class="cls-4" d="M338.26,83.08c1.61-.84,3.25-1.62,4.81-2.55s2.91-.67,3.9.76a2.48,2.48,0,0,1-.68,3.71,45.84,45.84,0,0,1-4.54,2.43c-.7-.48-1.35-1.24-2.12-1.41C337,85.45,336.88,85.41,338.26,83.08Z"/><path class="cls-10" d="M382.32,65.46l0-7.49h7.86c0,1.83,0,3.66,0,5.49Z"/><path class="cls-11" d="M135.2,108c-1.53-4.06.05-7.85,3.77-9s7.32.85,8.43,5l-2.31,0c-1.1-.9-2.07-2.31-3.31-2.59-3-.7-4.49,1.06-4.61,5Z"/><path class="cls-15" d="M390.21,58h-7.86c0-1.67,0-3.34,0-5a10.21,10.21,0,0,0,7.84-2C390.2,53.3,390.21,55.63,390.21,58Z"/><path class="cls-17" d="M272.64,81.9c-3.06-.39-1.76-3-2.3-4.64-.17-.52.22-1.23.36-1.88L266.82,75c0-1.67,0-3.33,0-5a3.18,3.18,0,0,1,1,0c2.57,1.06,4,.18,4.43-2.52l.09.86c.11.54.21,1.08.32,1.62s0,1,0,1.53V81.9Z"/><path class="cls-21" d="M177.05,106.57l2.53.34c2.92,3.65,5.66,3.32,7.72-1h2.38c0,1.42.13,2.84,0,4.25s-.84,1.85-2.23,1.18a2.63,2.63,0,0,0-1.83-.13C181.35,112.81,178.1,111.07,177.05,106.57Z"/><path class="cls-5" d="M390.1,80.93l-7.78,1V77l7.84-2Z"/><path class="cls-17" d="M186.43,70.58,188,66.5l3.17-6.56,3.09,2c-.2.67-.19,1.56-.63,2-1.42,1.33-.91,2.41.16,3.55L192.7,70C190.41,68.14,188.46,69.78,186.43,70.58Z"/><path class="cls-11" d="M382.32,65.46l7.88-2c0,1.67,0,3.34,0,5l-7.86,2C382.33,68.8,382.33,67.13,382.32,65.46Z"/><path class="cls-17" d="M338.26,83.08c-1.38,2.33-1.3,2.37,1.37,2.94.77.17,1.42.93,2.12,1.41a16.19,16.19,0,0,1-12.48.53c.43-.17.85-.38,1.3-.52,2.85-.88,3.24-2.17,1.27-4.3Z"/><path class="cls-11" d="M121.28,106.46a6.24,6.24,0,0,1,2.83-6.83,6,6,0,0,1,7,.3c.59.53.67,1.62,1,2.45a6.51,6.51,0,0,1-2.31-.36c-3-1.83-5.49-.48-6.29,3.53Z"/><path class="cls-16" d="M169.92,66c-.58-1.32-1.15-2.65-1.72-4l4.6-3.6.46,1.07.2.44c.44,1,.88,2,1.31,3.06l.26.42.21.59c-1.19,1.67-2.34,3.4-4.79,3.19v0C170.27,66.76,170.1,66.37,169.92,66Z"/><path class="cls-16" d="M160.78,59a3.63,3.63,0,0,0,.1.45l-4.72,3.09-3-1.81c-1.72-2.44.8-3.59,1.6-5.26Z"/><path class="cls-11" d="M158.26,103l-3.34-1.86-.72-1.75c.06-.06.12-.17.18-.16,2.11.1,4.41.8,6.27.18,2.34-.79,4.19-.9,6.11.6l-1.13,2.31c-1.88-1.62-3.49-1.26-4.88.67Z"/><path class="cls-17" d="M172.8,58.4,168.2,62c-1.06-2-2.61-3.9-1.7-6.43C169.51,53.09,171.26,53.88,172.8,58.4Z"/><path class="cls-14" d="M37.21,11.49c-.37-2.78.92-4.87,3.35-5.41s4.24.72,5.11,3.38Z"/><path class="cls-21" d="M165.63,102.3l1.13-2.31c.58.94,1.53,1.84,1.66,2.83a42.78,42.78,0,0,1,.17,7.16c0,.6-.89,1.16-1.38,1.73-.46-.58-1.28-1.13-1.33-1.75C165.67,107.42,165.69,104.86,165.63,102.3Z"/><path class="cls-14" d="M390.2,51a10.21,10.21,0,0,1-7.84,2l0-2c2-1.09,3.91-2.19,5.88-3.24a16.36,16.36,0,0,1,2-.76Z"/><path class="cls-7" d="M192.75,104.47a24.82,24.82,0,0,1,0-3.45c.18-1.32.64-2.29,2.46-1.79.89.25,2-.57,3-.44A10.27,10.27,0,0,1,201,100.1c-.78.42-1.56,1.19-2.33,1.18-2.28,0-3.38,1-3.54,3.17Z"/><path class="cls-7" d="M145.09,104l2.31,0c.92,4.94-2.89,8.68-7.65,7.52,0-.73,0-1.46,0-2.19C143.7,109.52,145.14,108.08,145.09,104Z"/><path class="cls-17" d="M182.8,78.47c.64-1.34,1.28-2.68,1.93-4l6.09-.37-2,4.89-.68,1C186.89,77.65,184.73,78.46,182.8,78.47Z"/><path class="cls-2" d="M244.23,68.47l0,.51c-.31.56-.49,1.43-1,1.62-.7.29-2,.48-2.34.09A20.64,20.64,0,0,1,238.79,67c.07-.35.15-.71.23-1.06l.22-.52.33-1C242.08,64.67,243.94,65.66,244.23,68.47Z"/><path class="cls-18" d="M45.33,25.37,45.72,28c-2.22.36-4.08,1.22-5,3.49a3.63,3.63,0,0,1-3.2-4.06Z"/><path class="cls-15" d="M45.33,25.37l-7.77,2a4,4,0,0,1,3.21-4.19A3.81,3.81,0,0,1,45.33,25.37Z"/><path class="cls-16" d="M194.28,62l-3.09-2,2.55-5L196.81,61l0,0c-.17.35-.34.71-.5,1.06l0,0Z"/><path class="cls-1" d="M421.13,42l-8.38,1.5c.37-2.18,1.53-3.7,3.79-4A3.87,3.87,0,0,1,421.13,42Z"/><path class="cls-7" d="M158.26,103h2.49c0,2.25.15,4.5,0,6.74,0,.65-.89,1.24-1.36,1.87-.39-.62-1.08-1.23-1.11-1.87C158.14,107.47,158.24,105.22,158.26,103Z"/><path class="cls-7" d="M125.37,108.91c1.51-.06,3-.16,4.52-.17a18.35,18.35,0,0,1,2.21.21c-.4.69-.63,1.7-1.22,2a5.93,5.93,0,0,1-7.1-.53Z"/><path class="cls-10" d="M37.21,11.49l8.46-2,0,2-7,2.52Z"/><path class="cls-3" d="M196.81,61l-3.07-6.13c2.66-1.16,3.71-.73,5,2.06C198.08,58.33,197.45,59.69,196.81,61Z"/><path class="cls-21" d="M192.75,104.47l2.38,0c.05,1.89.2,3.79.07,5.67,0,.57-.89,1.09-1.37,1.63-.38-.53-1.05-1-1.09-1.6C192.62,108.26,192.73,106.36,192.75,104.47Z"/><path class="cls-22" d="M312.27,73a7.31,7.31,0,0,1-.49-1.83q0-13.67,0-27.34a7.87,7.87,0,0,1,.46-1.84Q312.27,57.48,312.27,73Z"/><path class="cls-11" d="M38.74,14l7-2.52C44.54,15,42,15.88,38.74,14Z"/><path class="cls-19" d="M244.23,68.47c-.29-2.81-2.15-3.8-4.66-4.07L241,61.77c1.15.74,2.29,1.49,3.45,2.2a14.72,14.72,0,0,0,1.44.7Z"/><path class="cls-21" d="M154.2,99.37l.72,1.75-2,1.79h-2.42C149.91,99.2,150.14,99,154.2,99.37Z"/><path class="cls-9" d="M92.81,93.05a1.49,1.49,0,0,0-.15-.2c-.9-.88-3.51-.67-2.59-2.51.78-1.56,2.9-2,4.74-.78Z"/><path class="cls-21" d="M139.79,109.33c0,.73,0,1.46,0,2.19A5.3,5.3,0,0,1,135.2,108l2-1.56Z"/><path class="cls-21" d="M152.82,108.46c.09.47.4,1,.23,1.39a9.27,9.27,0,0,1-1.34,1.7c-.46-.54-1.21-1-1.33-1.63a11.36,11.36,0,0,1,.18-2.89l2.31,0,0,.94C152.83,108.11,152.83,108.29,152.82,108.46Z"/><path class="cls-21" d="M125.37,108.91l-1.59,1.54-2.5-4,2.2-.91Z"/><path class="cls-11" d="M40.76,31.47c.88-2.27,2.74-3.13,5-3.49C45.58,30.72,44,31.82,40.76,31.47Z"/><path class="cls-22" d="M306.76,41.47a9.28,9.28,0,0,1,.48,2.09c.05,4.33.07,8.66,0,13,0,.64-.64,1.27-1,1.9.06-4.69.11-9.39.21-14.08C306.46,43.4,306.65,42.44,306.76,41.47Z"/><path class="cls-21" d="M173,112.65c-.83-1.14-1.7-1.81-1.65-2.41s1-1.66,1.5-1.66a2.27,2.27,0,0,1,1.7,1.5C174.6,110.69,173.75,111.43,173,112.65Z"/><path class="cls-13" d="M119.73,110.11c-.93.75-1.61,1.69-2.08,1.6-.68-.15-1.21-1-1.8-1.6.59-.53,1.13-1.39,1.81-1.51C118.15,108.52,118.81,109.4,119.73,110.11Z"/><path class="cls-22" d="M232.75,70l.27,7,0,2.48c0,.68,0,1.36,0,2l-.3,5c-.16-1.5-.32-3-.49-4.5,0-3.22,0-6.44,0-9.66A12.64,12.64,0,0,1,232.75,70Z"/><path class="cls-13" d="M152.87,107l-2.31,0c0-1.38,0-2.75,0-4.12H153Z"/><path class="cls-9" d="M93.76,85.47l2.49,1c-.32.7-.63,1.39-.94,2.09C94.8,87.52,94.28,86.5,93.76,85.47Z"/><path class="cls-17" d="M266.48,68.05l.3,1.42Z"/><path class="cls-19" d="M272.63,70c-.11-.54-.21-1.08-.32-1.62l.49,1.13Z"/><path class="cls-19" d="M241.72,60.87l-.71.85Z"/><path class="cls-2" d="M224.53,56.7l.89.62-.17.18-1-.52Z"/><path class="cls-17" d="M173.46,59.91l-.2-.44Z"/><path class="cls-19" d="M239.24,65.4l-.22.52C239.09,65.75,239.16,65.57,239.24,65.4Z"/><path class="cls-3" d="M175,63.39l-.26-.42Z"/><path class="cls-2" d="M226.27,58l-.5.52c0-.16,0-.33,0-.49a3.76,3.76,0,0,0,.25-.31A.27.27,0,0,1,226.27,58Z"/><path class="cls-2" d="M225.42,57.32l.59.35a3.76,3.76,0,0,1-.25.31l-.51-.48Z"/><path class="cls-10" d="M17,27.56l.62.57Z"/><path class="cls-13" d="M152.82,108.46c0-.17,0-.35,0-.52C152.83,108.11,152.83,108.29,152.82,108.46Z"/><path class="cls-16" d="M222.61,62l-3.35-1.71c-.78-1.09-1.49-2.18-.36-3.49s2.38-1.14,3.75-.43a12.31,12.31,0,0,0,1.61.58l1,.52.51.48c0,.16,0,.33,0,.49Z"/><path class="cls-6" d="M165.26,84c-3.26-.24-4.86-2.8-6.75-4.91-.25-.28.1-1.09.17-1.66v0c.17-.35.35-.7.53-1.05l0,0,6.07,2.06Z"/><path class="cls-16" d="M150.76,83.08l4-1.59c.68.93,2.94,1.5,1.54,2.91-1,1-3,1.11-4.6,1.33C151.52,85.76,151.08,84,150.76,83.08Z"/><path class="cls-22" d="M165.26,84c0-1.83,0-3.66,0-5.5V71c.16-.49.31-1,.47-1.48q0,8.49,0,17Z"/><path class="cls-16" d="M149.06,83.4l.61-.06Z"/><path class="cls-9" d="M76.19,93.31,78,91.81l2.25,2.09C78.32,94.61,77.08,94.94,76.19,93.31Z"/><path class="cls-13" d="M55.77,98.59l3.48.21C58,99.74,56.84,100.1,55.77,98.59Z"/><path class="cls-17" d="M159.29,67q-1.56-2.23-3.13-4.46l4.72-3.09,4.09,6.5Z"/><path class="cls-16" d="M159.29,67l5.68-1,.75,3.56c-.16.5-.31,1-.47,1.48l-3.75,1.15L160,69.48Z"/><path class="cls-3" d="M169.92,66c.18.4.35.79.53,1.18C170.27,66.76,170.1,66.37,169.92,66Z"/><path class="cls-16" d="M190.82,74.09l-6.09.37c.57-1.3,1.13-2.59,1.7-3.88,2-.8,4-2.44,6.27-.62C192.07,71.33,191.45,72.71,190.82,74.09Z"/><path class="cls-3" d="M194.28,62l2.08.07-2.55,5.46c-1.07-1.14-1.58-2.22-.16-3.55C194.09,63.52,194.08,62.63,194.28,62Z"/><path class="cls-3" d="M196.34,62.06c.16-.35.33-.71.5-1.06C196.67,61.35,196.5,61.71,196.34,62.06Z"/><path class="cls-2" d="M238.31,75c.42,0,.84,0,1.25,0,3.49-.38,4.74,1.3,3.55,4.72-.38,1.09-.63,2.22-1,3.53L238.31,82Z"/><path class="cls-2" d="M355.85,86.45a2.09,2.09,0,0,1,.21.34s-.06.13-.09.19Z"/><path class="cls-2" d="M355.81,83.48a1.89,1.89,0,0,1,.17.35s-.11.09-.17.13Z"/><path class="cls-23" d="M35.68,75c-.12-.5-.23-1-.34-1.51-.49-2.45.93-2.91,2.95-3A18.1,18.1,0,0,1,50,73.88c2.46,1.67,5.07,3.12,7.61,4.66,7.59,3.87,15.37,4.9,23.93,1A20.93,20.93,0,0,1,75,89.33C62.38,99.76,43.2,95.25,37.19,80.07a3.07,3.07,0,0,0-.44-.6C36.4,78,36,76.47,35.68,75Z"/><path class="cls-24" d="M83.29,71.47C84.06,76,81.16,78,77.54,79c-2,.58-4.37,1.85-6.48-.48-2.27,2.56-5.07,1.34-7.75.84A38.84,38.84,0,0,1,58.82,78c1.25-.21,2.48-.5,3.74-.63,4-.43,7.24-2.67,10.49-4.82S79.64,69.43,83.29,71.47Z"/><path class="cls-17" d="M160,69.48l1.55,2.63L165.25,71v7.51l-6.07-2.06Q159.56,72.94,160,69.48Z"/><path class="cls-17" d="M159.2,76.38c-.18.35-.36.7-.53,1.05C158.84,77.08,159,76.73,159.2,76.38Z"/></svg>